<?xml version="1.0" encoding="utf-8"?>
<svg xmlns="http://www.w3.org/2000/svg" viewBox="0 0 512 512">
  <path d="M 233.607 220.787 C 243.314 231.576 259.078 231.576 268.784 220.787 L 393.033 82.679 C 402.74 71.889 402.74 54.367 393.033 43.577 C 383.326 32.788 367.562 32.788 357.855 43.577 L 251.156 162.177 L 144.458 43.664 C 134.751 32.874 118.987 32.874 109.28 43.664 C 99.573 54.453 99.573 71.976 109.28 82.765 L 233.529 220.873 L 233.607 220.787 Z" style="stroke-width: 1; transform-box: fill-box; transform-origin: 50% 50%; fill: rgb(255, 255, 255);" transform="matrix(-1, 0, 0, -1, 0, 0)"/>
  <text style="fill: rgb(255, 255, 255); font-family: Arial, sans-serif; font-size: 81px; text-anchor: middle; white-space: pre;" transform="matrix(3.653178, 0, 0, 2.5074, -645.797974, -423.946716)" x="242.257" y="321.02">1</text>
  <path d="M 90.13 484.454 C 74.822 484.454 62.455 494.529 62.455 507.002 C 62.455 519.473 74.822 529.549 90.13 529.549 L 422.234 529.549 C 437.542 529.549 449.909 519.473 449.909 507.002 C 449.909 494.529 437.542 484.454 422.234 484.454 L 90.13 484.454 Z M 90.13 394.263 C 74.822 394.263 62.455 404.339 62.455 416.81 C 62.455 429.284 74.822 439.358 90.13 439.358 L 422.234 439.358 C 437.542 439.358 449.909 429.284 449.909 416.81 C 449.909 404.339 437.542 394.263 422.234 394.263 L 90.13 394.263 Z" style="stroke-width: 1; fill: rgb(255, 255, 255);"/>
</svg>