<?xml version="1.0" encoding="utf-8"?>
<svg xmlns="http://www.w3.org/2000/svg" viewBox="0 0 512 512">
  <rect width="525.998" height="521.998" style="stroke-width: 24px; paint-order: stroke; fill: rgb(5, 92, 0); visibility: hidden;" x="-8.999" y="-11.999"/>
  <path d="M 351.501 26.845 C 358.289 24.385 365.711 24.385 372.547 26.845 L 466.296 60.591 C 478.7 65.068 487 76.924 487 90.255 L 487 209.745 C 487 223.027 478.7 234.932 466.247 239.409 L 372.499 273.156 C 365.711 275.615 358.289 275.615 351.453 273.156 L 257.704 239.409 C 245.3 234.883 237 223.027 237 209.696 L 237 90.255 C 237 76.973 245.3 65.068 257.753 60.591 L 351.501 26.845 Z M 362 56.508 L 277.186 87.008 L 362 117.508 L 446.814 87.008 L 362 56.508 Z M 377.626 237.835 L 455.75 209.745 L 455.75 117.262 L 377.626 145.351 L 377.626 237.835 Z" style="fill: rgb(255, 0, 0);"/>
  <text style="fill: rgb(255, 255, 255); font-family: Arial, sans-serif; font-size: 90px; font-weight: 700; text-anchor: middle; white-space: pre;" x="256.275" y="376.951">Scene an</text>
  <rect y="422" width="512" height="90" style="stroke: rgb(0, 0, 0); fill: rgb(255, 0, 0);"/>
  <text style="fill: rgb(255, 255, 255); font-family: Arial, sans-serif; font-size: 65px; font-weight: 700; text-anchor: end; white-space: pre;" x="462.898" y="487.796">32 CH</text>
  <text style="fill: rgb(255, 255, 255); font-family: Arial, sans-serif; font-size: 65px; font-weight: 700; white-space: pre;" x="51.392" y="488.675">ID 69</text>
  <ellipse style="stroke: rgb(0, 0, 0); fill-rule: nonzero; paint-order: fill; fill: rgb(142, 91, 209); visibility: hidden;" cx="80" cy="90" rx="35" ry="35"/>
  <ellipse style="stroke: rgb(0, 0, 0); fill: rgb(65, 166, 199); visibility: hidden;" cx="169" cy="140" rx="35" ry="35"/>
  <ellipse style="stroke: rgb(0, 0, 0); fill: rgb(28, 163, 108); visibility: hidden;" cx="80" cy="190" rx="35" ry="35"/>
  <ellipse style="fill: none; stroke-width: 5px; stroke: rgb(255, 255, 255);" cx="80" cy="80" rx="40" ry="40"/>
</svg>