<?xml version="1.0" encoding="utf-8"?>
<svg xmlns="http://www.w3.org/2000/svg" viewBox="0 0 512 512">
  <path d="M 84.814 -150.41 C 84.814 -138.93 94.087 -129.66 105.564 -129.66 L 141.033 -129.66 C 149.009 -111.31 167.295 -98.533 188.564 -98.533 C 209.833 -98.533 228.119 -111.31 236.096 -129.66 L 396.064 -129.66 C 407.541 -129.66 416.814 -138.93 416.814 -150.41 C 416.814 -161.88 407.541 -171.16 396.064 -171.16 L 236.096 -171.16 C 228.119 -189.51 209.833 -202.29 188.564 -202.29 C 167.295 -202.29 149.009 -189.51 141.033 -171.16 L 105.564 -171.16 C 94.087 -171.16 84.814 -161.88 84.814 -150.41 Z M 167.814 -150.41 C 167.814 -166.38 185.106 -176.38 198.938 -168.38 C 205.358 -164.66 209.314 -157.82 209.314 -150.41 C 209.314 -134.44 192.021 -124.44 178.189 -132.44 C 171.768 -136.15 167.814 -143.01 167.814 -150.41 Z M 292.314 -254.15 C 292.314 -270.13 309.606 -280.13 323.439 -272.13 C 329.858 -268.43 333.814 -261.57 333.814 -254.15 C 333.814 -238.19 316.523 -228.19 302.689 -236.19 C 296.269 -239.89 292.314 -246.76 292.314 -254.15 Z M 313.064 -306.05 C 291.796 -306.05 273.509 -293.26 265.533 -274.9 L 105.564 -274.9 C 94.087 -274.9 84.814 -265.63 84.814 -254.15 C 84.814 -242.69 94.087 -233.41 105.564 -233.41 L 265.533 -233.41 C 273.509 -215.07 291.796 -202.29 313.064 -202.29 C 334.334 -202.29 352.62 -215.07 360.596 -233.41 L 396.064 -233.41 C 407.541 -233.41 416.814 -242.69 416.814 -254.15 C 416.814 -265.63 407.541 -274.9 396.064 -274.9 L 360.596 -274.9 C 352.62 -293.26 334.334 -306.05 313.064 -306.05 Z M 209.314 -337.15 C 193.342 -337.15 183.357 -354.44 191.344 -368.3 C 195.051 -374.7 201.9 -378.65 209.314 -378.65 C 225.288 -378.65 235.271 -361.38 227.285 -347.55 C 223.577 -341.12 216.728 -337.15 209.314 -337.15 Z M 256.844 -378.65 C 248.87 -397.01 230.583 -409.8 209.314 -409.8 C 188.045 -409.8 169.759 -397.01 161.783 -378.65 L 105.564 -378.65 C 94.087 -378.65 84.814 -369.38 84.814 -357.9 C 84.814 -346.44 94.087 -337.15 105.564 -337.15 L 161.783 -337.15 C 169.759 -318.82 188.045 -306.05 209.314 -306.05 C 230.583 -306.05 248.87 -318.82 256.844 -337.15 L 396.064 -337.15 C 407.541 -337.15 416.814 -346.44 416.814 -357.9 C 416.814 -369.38 407.541 -378.65 396.064 -378.65 L 256.844 -378.65 Z" style="fill: rgb(255, 255, 255); transform-origin: 4.188px 4.188px;" transform="matrix(0, 1, -1, 0, -0.000001, 0)"/>
</svg>